# Blender v2.78 (sub 0) OBJ File: 'snakeBody.blend'
# www.blender.org
mtllib snakeBody.mtl
o Icosphere
v 0.720749 0.447216 0.000000
v 0.766384 0.000000 0.309013
v 0.766384 0.000000 -0.309013
v 1.183036 0.463449 -0.167913
v 1.264838 0.686376 0.000000
v 1.183036 0.463449 0.167913
v 1.530855 0.275448 -0.167914
v 1.681396 0.433881 -0.000000
v 1.530855 0.275448 0.167913
v 1.601387 -0.166474 -0.124004
v 1.735422 -0.237584 -0.000000
v 1.601387 -0.166474 0.124003
v 1.403643 -0.811619 -0.124004
v 1.523880 -0.709347 -0.000000
v 1.403643 -0.811619 0.124003
v 1.538271 -1.008925 -0.124004
v 1.538133 -0.828029 -0.000000
v 1.538271 -1.008925 0.124003
v 1.823031 -0.985718 -0.076966
v 1.822946 -0.873440 -0.000000
v 1.823031 -0.985718 0.076966
v -0.685471 0.525736 0.000000
v -0.766384 0.000000 0.309013
v -0.766384 0.000000 -0.309013
v -1.183036 0.463449 -0.167913
v -1.264838 0.686376 0.000000
v -1.183036 0.463449 0.167913
v -1.530855 0.275448 -0.167914
v -1.681396 0.433881 -0.000000
v -1.530855 0.275448 0.167913
v -1.601387 -0.166474 -0.124004
v -1.735422 -0.237584 -0.000000
v -1.601387 -0.166474 0.124003
v -1.403643 -0.811619 -0.124004
v -1.523880 -0.709347 -0.000000
v -1.403643 -0.811619 0.124003
v -1.538271 -1.008925 -0.124004
v -1.538133 -0.828029 -0.000000
v -1.538271 -1.008925 0.124003
v -1.823031 -0.985718 -0.076966
v -1.822946 -0.873440 -0.000000
v -1.823031 -0.985718 0.076966
v 0.000000 -1.000000 0.000000
v 0.583099 -0.447220 0.525725
v -0.222720 -0.447220 0.850649
v -0.720749 -0.447216 0.000000
v -0.222720 -0.447220 -0.850649
v 0.583099 -0.447220 -0.525725
v 0.222720 0.447220 0.850649
v -0.583099 0.447220 0.525725
v -0.583099 0.447220 -0.525725
v 0.222720 0.447220 -0.850649
v 0.000000 1.000000 0.000000
v -0.130910 -0.850654 0.499995
v 0.342735 -0.850654 0.309011
v 0.211826 -0.525738 0.809012
v 0.685471 -0.525736 0.000000
v 0.342735 -0.850654 -0.309011
v -0.423645 -0.850652 0.000000
v -0.554559 -0.525736 0.499997
v -0.130910 -0.850654 -0.499995
v -0.554559 -0.525736 -0.499997
v 0.211826 -0.525738 -0.809012
v 0.000000 0.000000 1.000000
v 0.473651 0.000000 0.809017
v -0.473651 0.000000 0.809017
v -0.473651 0.000000 -0.809017
v 0.473651 0.000000 -0.809017
v 0.000000 0.000000 -1.000000
v 0.554559 0.525736 0.499997
v -0.211826 0.525738 0.809012
v -0.211826 0.525738 -0.809012
v 0.554559 0.525736 -0.499997
v 0.130910 0.850654 0.499995
v 0.423645 0.850652 0.000000
v -0.342735 0.850654 0.309011
v -0.342735 0.850654 -0.309011
v 0.130910 0.850654 -0.499995
vn 0.7437 -0.6686 -0.0000
vn -0.4755 -0.8797 0.0000
vn -0.2994 0.5639 0.7697
vn -0.2994 0.5639 -0.7697
vn -0.9875 -0.1576 -0.0000
vn 0.3002 0.5209 0.7991
vn 0.3002 0.5209 -0.7991
vn -0.9561 0.2931 0.0000
vn 0.7074 0.0513 0.7050
vn 0.7074 0.0513 -0.7050
vn -0.8260 -0.5636 0.0000
vn 0.6912 -0.2533 0.6768
vn 0.6912 -0.2533 -0.6768
vn 0.0812 -0.9967 0.0000
vn 0.6642 0.3129 0.6789
vn 0.6642 0.3129 -0.6789
vn 1.0000 0.0008 0.0000
vn 0.0898 0.5632 0.8214
vn 0.0898 0.5632 -0.8214
vn -0.7437 -0.6686 -0.0000
vn 0.4755 -0.8797 0.0000
vn 0.2123 0.5252 0.8241
vn 0.2123 0.5252 -0.8241
vn 0.9875 -0.1576 -0.0000
vn -0.3002 0.5209 0.7991
vn -0.3002 0.5209 -0.7991
vn 0.9561 0.2931 0.0000
vn -0.7074 0.0513 0.7050
vn -0.7074 0.0513 -0.7050
vn 0.8260 -0.5636 0.0000
vn -0.6912 -0.2533 0.6768
vn -0.6912 -0.2533 -0.6768
vn -0.0812 -0.9967 0.0000
vn -0.6642 0.3129 0.6789
vn -0.6642 0.3129 -0.6789
vn -1.0000 0.0008 0.0000
vn -0.0898 0.5632 0.8214
vn -0.0898 0.5632 -0.8214
vn 0.1267 -0.9409 0.3142
vn 0.7727 -0.5884 0.2383
vn -0.3264 -0.9257 0.1911
vn -0.3264 -0.9257 -0.1911
vn 0.1267 -0.9409 -0.3142
vn 0.9352 -0.2751 0.2232
vn 0.0307 -0.3303 0.9434
vn -0.9241 -0.2765 0.2637
vn -0.6569 -0.3044 -0.6898
vn 0.6175 -0.3075 -0.7240
vn 0.8579 -0.1082 0.5023
vn -0.3711 -0.1226 0.9205
vn -0.9948 -0.1015 0.0000
vn -0.3711 -0.1226 -0.9205
vn 0.8579 -0.1082 -0.5023
vn 0.4860 0.6337 0.6018
vn -0.5527 0.6253 0.5510
vn -0.7727 0.5884 -0.2383
vn 0.0478 0.6614 -0.7485
vn 0.7932 0.5842 -0.1719
vn 0.3264 0.9257 -0.1911
vn 0.5733 0.7475 -0.3356
vn 0.4860 0.6337 -0.6018
vn -0.1267 0.9409 -0.3142
vn -0.2306 0.7872 -0.5719
vn -0.5527 0.6253 -0.5510
vn -0.3995 0.9167 0.0000
vn -0.6880 0.7257 0.0000
vn -0.7727 0.5884 0.2383
vn -0.1267 0.9409 0.3142
vn -0.2306 0.7872 0.5719
vn 0.0478 0.6614 0.7485
vn 0.3264 0.9257 0.1911
vn 0.5733 0.7475 0.3356
vn 0.7932 0.5842 0.1719
vn 0.9241 0.2765 -0.2637
vn 0.8516 0.1620 -0.4986
vn 0.6569 0.3044 -0.6898
vn -0.0307 0.3303 -0.9434
vn -0.3676 0.1831 -0.9118
vn -0.6175 0.3075 -0.7240
vn -0.9352 0.2751 -0.2232
vn -0.9352 0.2751 0.2232
vn -0.6175 0.3075 0.7240
vn -0.3676 0.1831 0.9118
vn -0.0307 0.3303 0.9434
vn 0.6569 0.3044 0.6898
vn 0.8516 0.1620 0.4986
vn 0.9241 0.2765 0.2637
vn 0.3711 0.1226 -0.9205
vn 0.3676 -0.1831 -0.9118
vn 0.0307 -0.3303 -0.9434
vn -0.8579 0.1082 -0.5023
vn -0.8516 -0.1620 -0.4986
vn -0.9241 -0.2765 -0.2637
vn -0.8579 0.1082 0.5023
vn -0.8516 -0.1620 0.4986
vn -0.6569 -0.3044 0.6898
vn 0.3711 0.1226 0.9205
vn 0.3676 -0.1831 0.9118
vn 0.6175 -0.3075 0.7240
vn 0.9884 -0.1521 0.0000
vn 0.9352 -0.2751 -0.2232
vn 0.5527 -0.6253 -0.5510
vn 0.2306 -0.7872 -0.5719
vn -0.0478 -0.6614 -0.7485
vn -0.4860 -0.6337 -0.6018
vn -0.5733 -0.7475 -0.3356
vn -0.7932 -0.5842 -0.1719
vn -0.7932 -0.5842 0.1719
vn -0.5733 -0.7475 0.3356
vn -0.4860 -0.6337 0.6018
vn 0.7727 -0.5884 -0.2383
vn 0.6880 -0.7257 0.0000
vn 0.3995 -0.9167 0.0000
vn -0.0478 -0.6614 0.7485
vn 0.2306 -0.7872 0.5719
vn 0.5527 -0.6253 0.5510
usemtl Material.001
s off
f 2//1 3//1 4//1 6//1
f 6//2 4//2 7//2 9//2
f 1//3 2//3 6//3 5//3
f 3//4 1//4 5//4 4//4
f 9//5 7//5 10//5 12//5
f 5//6 6//6 9//6 8//6
f 4//7 5//7 8//7 7//7
f 12//8 10//8 13//8 15//8
f 8//9 9//9 12//9 11//9
f 7//10 8//10 11//10 10//10
f 15//11 13//11 16//11 18//11
f 11//12 12//12 15//12 14//12
f 10//13 11//13 14//13 13//13
f 18//14 16//14 19//14 21//14
f 14//15 15//15 18//15 17//15
f 13//16 14//16 17//16 16//16
f 21//17 19//17 20//17
f 17//18 18//18 21//18 20//18
f 16//19 17//19 20//19 19//19
f 23//20 27//20 25//20 24//20
f 27//21 30//21 28//21 25//21
f 22//22 26//22 27//22 23//22
f 24//23 25//23 26//23 22//23
f 30//24 33//24 31//24 28//24
f 26//25 29//25 30//25 27//25
f 25//26 28//26 29//26 26//26
f 33//27 36//27 34//27 31//27
f 29//28 32//28 33//28 30//28
f 28//29 31//29 32//29 29//29
f 36//30 39//30 37//30 34//30
f 32//31 35//31 36//31 33//31
f 31//32 34//32 35//32 32//32
f 39//33 42//33 40//33 37//33
f 35//34 38//34 39//34 36//34
f 34//35 37//35 38//35 35//35
f 42//36 41//36 40//36
f 38//37 41//37 42//37 39//37
f 37//38 40//38 41//38 38//38
f 43//39 55//39 54//39
f 44//40 55//40 57//40
f 43//41 54//41 59//41
f 43//42 59//42 61//42
f 43//43 61//43 58//43
f 44//44 57//44 2//44
f 45//45 56//45 64//45
f 46//46 60//46 23//46
f 47//47 62//47 67//47
f 48//48 63//48 68//48
f 44//49 2//49 65//49
f 45//50 64//50 66//50
f 46//51 23//51 24//51
f 47//52 67//52 69//52
f 48//53 68//53 3//53
f 49//54 70//54 74//54
f 50//55 71//55 76//55
f 51//56 22//56 77//56
f 52//57 72//57 78//57
f 1//58 73//58 75//58
f 75//59 78//59 53//59
f 75//60 73//60 78//60
f 73//61 52//61 78//61
f 78//62 77//62 53//62
f 78//63 72//63 77//63
f 72//64 51//64 77//64
f 77//65 76//65 53//65
f 77//66 22//66 76//66
f 22//67 50//67 76//67
f 76//68 74//68 53//68
f 76//69 71//69 74//69
f 71//70 49//70 74//70
f 74//71 75//71 53//71
f 74//72 70//72 75//72
f 70//73 1//73 75//73
f 3//74 73//74 1//74
f 3//75 68//75 73//75
f 68//76 52//76 73//76
f 69//77 72//77 52//77
f 69//78 67//78 72//78
f 67//79 51//79 72//79
f 24//80 22//80 51//80
f 23//81 50//81 22//81
f 66//82 71//82 50//82
f 66//83 64//83 71//83
f 64//84 49//84 71//84
f 65//85 70//85 49//85
f 65//86 2//86 70//86
f 2//87 1//87 70//87
f 68//88 69//88 52//88
f 68//89 63//89 69//89
f 63//90 47//90 69//90
f 67//91 24//91 51//91
f 67//92 62//92 24//92
f 62//93 46//93 24//93
f 23//94 66//94 50//94
f 23//95 60//95 66//95
f 60//96 45//96 66//96
f 64//97 65//97 49//97
f 64//98 56//98 65//98
f 56//99 44//99 65//99
f 2//100 57//100 3//100
f 57//101 48//101 3//101
f 58//102 63//102 48//102
f 58//103 61//103 63//103
f 61//104 47//104 63//104
f 61//105 62//105 47//105
f 61//106 59//106 62//106
f 59//107 46//107 62//107
f 59//108 60//108 46//108
f 59//109 54//109 60//109
f 54//110 45//110 60//110
f 57//111 58//111 48//111
f 57//112 55//112 58//112
f 55//113 43//113 58//113
f 54//114 56//114 45//114
f 54//115 55//115 56//115
f 55//116 44//116 56//116
